Coordinates
version=1
nRows=15
nColumns=63
inDegrees=yes

Units are S.I. units (second, meters, Newtons, ...)
If the header above contains a line with 'inDegrees', this indicates whether rotational values are in degrees (yes) or radians (no).

endheader
time	pelvis_tilt	pelvis_list	pelvis_rotation	pelvis_tx	pelvis_ty	pelvis_tz	hip_flexion_r	hip_adduction_r	hip_rotation_r	knee_angle_r	knee_angle_r_beta	ankle_angle_r	subtalar_angle_r	mtp_angle_r	hip_flexion_l	hip_adduction_l	hip_rotation_l	knee_angle_l	knee_angle_l_beta	ankle_angle_l	subtalar_angle_l	mtp_angle_l	L5_S1_Flex_Ext	L5_S1_Lat_Bending	L5_S1_axial_rotation	L4_L5_Flex_Ext	L4_L5_Lat_Bending	L4_L5_axial_rotation	L3_L4_Flex_Ext	L3_L4_Lat_Bending	L3_L4_axial_rotation	L2_L3_Flex_Ext	L2_L3_Lat_Bending	L2_L3_axial_rotation	L1_L2_Flex_Ext	L1_L2_Lat_Bending	L1_L2_axial_rotation	L1_T12_Flex_Ext	L1_T12_Lat_Bending	L1_T12_axial_rotation	Abs_r3	Abs_r2	Abs_r1	Abs_t1	Abs_t2	neck_flexion	neck_bending	neck_rotation	arm_flex_r	arm_add_r	arm_rot_r	elbow_flex_r	pro_sup_r	wrist_flex_r	wrist_dev_r	arm_flex_l	arm_add_l	arm_rot_l	elbow_flex_l	pro_sup_l	wrist_flex_l	wrist_dev_l
2.644068	4.596110	-5.365345	96.866898	0.166391	0.971206	0.479135	5.412086	3.332917	3.128972	5.289540	0.092320	23.286404	1.276648	0.000000	5.711355	-4.310859	4.508685	2.810388	0.049051	24.822343	-1.428112	0.000000	-0.249693	0.939003	0.963870	-0.463704	1.248874	1.024112	-0.410220	2.283093	1.024112	-0.285374	2.283093	0.843386	-0.231864	1.914815	0.783144	-0.142674	1.454516	0.722903	-1.783529	10.622193	5.360756	0.000000	0.000000	-2.245611	-17.118277	12.586978	-7.501999	-16.125056	6.290556	78.208903	87.609631	-12.607487	11.317370	38.471598	10.235084	5.481647	141.395496	88.034590	-2.969973	22.909285
2.661017	4.516772	-5.379420	96.783926	0.166301	0.971508	0.479022	5.387944	3.238363	3.366188	5.187218	0.090534	23.324937	1.301157	0.000000	5.681562	-4.202880	5.191042	2.664227	0.046500	24.695914	-2.285604	0.000000	-0.254219	0.936876	1.022312	-0.472109	1.246044	1.086206	-0.417656	2.277919	1.086206	-0.290546	2.277919	0.894523	-0.236067	1.910477	0.830628	-0.145260	1.451220	0.766734	-1.815858	10.598124	5.685792	0.000000	0.000000	-2.480712	-17.122691	12.776084	-7.411871	-16.006543	6.127048	76.734478	86.788317	-12.699186	9.791048	38.383468	10.340122	5.531435	141.296653	88.035242	-2.900942	22.789322
2.677966	4.429599	-5.377059	96.710556	0.166236	0.971842	0.478970	5.356849	3.139116	3.545984	5.081117	0.088682	23.394893	1.417182	0.000000	5.648525	-4.092297	5.741150	2.531183	0.044177	24.623870	-2.965653	0.000000	-0.260713	0.933899	1.072246	-0.484171	1.242086	1.139261	-0.428326	2.270682	1.139261	-0.297969	2.270682	0.938215	-0.242099	1.904407	0.871200	-0.148972	1.446610	0.804184	-1.862250	10.564452	5.963509	0.000000	0.000000	-2.784147	-17.074020	13.082443	-7.285213	-15.931530	6.013238	75.535547	86.351048	-12.805881	8.298262	38.336519	10.367152	5.552416	141.128815	88.035741	-2.864392	22.799552
2.694915	4.334398	-5.356852	96.650653	0.166230	0.972186	0.478971	5.317289	3.037458	3.659837	4.977311	0.086870	23.489748	1.614964	0.000000	5.604980	-3.982674	6.162247	2.407093	0.042012	24.597318	-3.469476	0.000000	-0.268348	0.928285	1.106487	-0.498349	1.234619	1.175643	-0.440868	2.257032	1.175643	-0.306695	2.257032	0.968176	-0.249188	1.892959	0.899021	-0.153334	1.437914	0.829866	-1.916781	10.500947	6.153951	0.000000	0.000000	-3.152436	-16.935446	13.457737	-7.081235	-15.903284	6.052729	74.561825	85.934600	-12.947549	6.885199	38.356048	10.309440	5.517028	140.922913	88.030639	-2.860157	23.142416
2.711864	4.255072	-5.318350	96.600264	0.166238	0.972510	0.479009	5.269336	2.956268	3.718949	4.879039	0.085155	23.593833	1.871205	0.000000	5.550505	-3.897189	6.416672	2.302497	0.040186	24.620594	-3.777731	0.000000	-0.276466	0.924096	1.125627	-0.513426	1.229047	1.195978	-0.454207	2.246847	1.195978	-0.315973	2.246847	0.984923	-0.256727	1.884416	0.914572	-0.157973	1.431424	0.844220	-1.974772	10.453557	6.260397	0.000000	0.000000	-3.554940	-16.777542	13.874074	-6.817873	-15.921084	6.174954	73.841190	85.578254	-12.950067	5.801999	38.426360	10.178245	5.431244	140.659534	88.015676	-2.905653	23.608031
2.728814	4.195642	-5.266305	96.562186	0.166249	0.972788	0.479049	5.211198	2.898702	3.729882	4.779841	0.083424	23.699925	2.166634	0.000000	5.489666	-3.839646	6.484617	2.232077	0.038957	24.686823	-3.875383	0.000000	-0.283205	0.921819	1.129765	-0.525940	1.226019	1.200376	-0.465278	2.241310	1.200376	-0.323675	2.241310	0.988545	-0.262984	1.879773	0.917934	-0.161823	1.427897	0.847324	-2.022906	10.427799	6.283417	0.000000	0.000000	-3.980251	-16.636198	14.271148	-6.510190	-15.971895	6.372915	73.327792	85.297441	-12.779268	5.090905	38.535909	9.979603	5.285487	140.354238	87.994575	-2.976063	24.167078
2.745763	4.166969	-5.205909	96.530785	0.166261	0.973003	0.479080	5.150837	2.874202	3.687106	4.686245	0.081790	23.803933	2.510093	0.000000	5.426337	-3.821777	6.352759	2.202372	0.038439	24.785423	-3.756779	0.000000	-0.287692	0.923448	1.128195	-0.534272	1.228186	1.198707	-0.472649	2.245272	1.198707	-0.328803	2.245272	0.987170	-0.267151	1.883096	0.916658	-0.164387	1.430421	0.846146	-2.054954	10.446232	6.274680	0.000000	0.000000	-4.402890	-16.516842	14.633839	-6.227105	-16.020006	6.531979	72.999035	85.100471	-12.375432	4.754793	38.674270	9.740376	5.124509	139.999256	87.967246	-3.125076	24.642121
2.762712	4.161814	-5.127469	96.523110	0.166248	0.973161	0.479099	5.073320	2.875715	3.595683	4.596979	0.080232	23.909491	2.864088	0.000000	5.353889	-3.834603	6.053669	2.218998	0.038729	24.898037	-3.437998	0.000000	-0.290763	0.928414	1.122266	-0.539977	1.234790	1.192408	-0.477695	2.257345	1.192408	-0.332313	2.257345	0.981983	-0.270003	1.893221	0.911841	-0.166142	1.438113	0.841699	-2.076894	10.502401	6.241706	0.000000	0.000000	-4.805217	-16.474946	14.864499	-5.994670	-16.081879	6.664021	72.809009	84.991288	-11.805387	4.745492	38.838189	9.456807	4.959600	139.580637	87.934578	-3.322419	24.936106
2.779661	4.185584	-5.050104	96.526147	0.166201	0.973245	0.479107	5.000307	2.904801	3.465455	4.517311	0.078842	24.020385	3.225637	0.000000	5.296542	-3.881203	5.579920	2.289963	0.039967	25.036548	-2.903850	0.000000	-0.290307	0.938622	1.122417	-0.539130	1.248368	1.192569	-0.476946	2.282166	1.192569	-0.331792	2.282166	0.982115	-0.269579	1.914038	0.911964	-0.165882	1.453926	0.841813	-2.073636	10.617882	6.242549	0.000000	0.000000	-5.145929	-16.529905	15.034645	-5.891524	-16.137423	6.639109	72.742706	84.953966	-10.960582	4.995184	39.019449	9.155480	4.808574	139.119223	87.907205	-3.567761	25.025598
2.796610	4.214708	-4.972349	96.543839	0.166151	0.973279	0.479118	4.928175	2.938585	3.299589	4.449915	0.077666	24.142016	3.584741	0.000000	5.246494	-3.937200	4.991673	2.393311	0.041771	25.180795	-2.208666	0.000000	-0.287732	0.950375	1.126223	-0.534347	1.263999	1.196612	-0.472715	2.310742	1.196612	-0.328849	2.310742	0.985445	-0.267188	1.938005	0.915056	-0.164410	1.472131	0.844667	-2.055240	10.750834	6.263713	0.000000	0.000000	-5.426256	-16.656673	15.115923	-5.889450	-16.199361	6.572372	72.729854	84.975216	-10.089892	5.401929	39.222060	8.830078	4.661881	138.628739	87.876385	-3.831612	24.915956
2.813559	4.260842	-4.878528	96.585218	0.166075	0.973303	0.479159	4.844948	2.989646	3.092185	4.403317	0.076852	24.269838	3.926732	0.000000	5.195809	-4.015981	4.296702	2.523534	0.044044	25.362132	-1.316985	0.000000	-0.285777	0.964834	1.131461	-0.530717	1.283229	1.202177	-0.469504	2.345896	1.202177	-0.326615	2.345896	0.990028	-0.265373	1.967489	0.919312	-0.163293	1.494527	0.848595	-2.041279	10.914390	6.292844	0.000000	0.000000	-5.628482	-16.818446	15.101109	-5.959516	-16.278068	6.444487	72.766601	85.078535	-9.101328	6.171311	39.434654	8.514956	4.541221	138.127416	87.837341	-4.165967	24.616356
2.830508	4.286752	-4.783999	96.622996	0.166028	0.973342	0.479253	4.776794	3.013716	2.756561	4.403343	0.076853	24.443602	4.406417	0.000000	5.149323	-4.076444	3.493603	2.658747	0.046404	25.566035	-0.266956	0.000000	-0.284199	0.977257	1.137729	-0.527785	1.299752	1.208837	-0.466910	2.376103	1.208837	-0.324811	2.376103	0.995513	-0.263907	1.992823	0.924405	-0.162391	1.513772	0.853297	-2.030002	11.054930	6.327707	0.000000	0.000000	-5.752941	-16.978549	15.079695	-6.036137	-16.395464	6.460038	72.691819	85.228871	-8.377100	6.725840	39.647587	8.192589	4.415031	137.658503	87.797761	-4.505368	24.153151
2.847458	4.306944	-4.675709	96.658860	0.165982	0.973412	0.479315	4.690583	3.034068	2.435325	4.419765	0.077139	24.608048	4.826191	0.000000	5.064807	-4.124969	3.018696	2.739292	0.047810	25.690627	0.362070	0.000000	-0.282218	0.988966	1.146428	-0.524107	1.315325	1.218080	-0.463656	2.404572	1.218080	-0.322547	2.404572	1.003124	-0.262068	2.016700	0.931473	-0.161259	1.531908	0.859821	-2.015855	11.187382	6.376088	0.000000	0.000000	-5.839633	-17.103218	15.032716	-6.109703	-16.565505	6.608620	72.519823	85.404004	-7.848019	7.302161	39.827322	7.909764	4.315289	137.239796	87.753908	-4.859946	23.565437
2.864407	4.300732	-4.559378	96.683215	0.165977	0.973519	0.479423	4.604662	3.026828	2.085944	4.471968	0.078051	24.780525	5.250610	0.000000	4.973018	-4.147865	2.515742	2.812582	0.049089	25.839048	1.049639	0.000000	-0.281931	0.997346	1.160086	-0.523573	1.326470	1.232591	-0.463184	2.424947	1.232591	-0.322218	2.424947	1.015075	-0.261801	2.033788	0.942569	-0.161095	1.544889	0.870064	-2.013802	11.282178	6.452048	0.000000	0.000000	-5.843600	-17.235968	14.963949	-6.152406	-16.738727	6.846400	72.191327	85.627189	-7.567128	7.778734	39.982367	7.672402	4.239650	136.895947	87.710615	-5.184060	22.893731
2.881356	4.275244	-4.428289	96.713444	0.165970	0.973656	0.479525	4.497592	3.002949	1.798139	4.536947	0.079185	24.932099	5.548532	0.000000	4.851885	-4.147169	2.247153	2.849938	0.049741	25.930863	1.456504	0.000000	-0.282356	1.002791	1.175687	-0.524364	1.333712	1.249167	-0.463883	2.438186	1.249167	-0.322705	2.438186	1.028726	-0.262196	2.044891	0.955246	-0.161338	1.553323	0.881765	-2.016844	11.343771	6.538817	0.000000	0.000000	-5.821254	-17.340055	14.859096	-6.155538	-16.913266	7.165556	71.696966	85.879667	-7.509501	8.216850	40.088909	7.506422	4.201924	136.644761	87.664276	-5.429982	22.194496
